<svg width="160" height="178" viewBox="0 0 160 178" fill="none" xmlns="http://www.w3.org/2000/svg">
<path fill-rule="evenodd" clip-rule="evenodd" d="M77.5039 0C81.3003 0.000927613 84.9753 1.33755 87.8852 3.77574L88.9363 4.73787L124.624 40.4255C127.308 43.11 128.963 46.6533 129.297 50.4349L129.362 51.8579V145.532C129.363 149.611 127.822 153.541 125.048 156.532C122.275 159.523 118.472 161.356 114.404 161.662L113.192 161.702H16.1702C12.0907 161.703 8.16139 160.163 5.17004 157.389C2.1787 154.615 0.346394 150.813 0.0404273 146.745L8.10678e-07 145.532V16.1702C-0.00129022 12.0907 1.53946 8.16138 4.31338 5.17004C7.08731 2.1787 10.8894 0.346393 14.9575 0.0404265L16.1702 0H77.5039ZM64.6809 16.1702H16.1702V145.532H113.192V64.6808H76.8086C73.7938 64.6807 70.8871 63.5577 68.6554 61.5307C66.4237 59.5038 65.0269 56.7183 64.7375 53.7174L64.6809 52.5532V16.1702ZM72.669 79.6221C74.6044 91.9362 81.0441 103.093 90.7392 110.928C97.9107 116.725 91.3537 128.076 82.7512 124.769C71.1205 120.291 58.2413 120.291 46.6107 124.769C38 128.084 31.443 116.725 38.6145 110.928C48.3096 103.093 54.7494 91.9362 56.6847 79.6221C58.1239 70.5102 71.238 70.5183 72.669 79.6221ZM64.6648 98.2502L59.1022 107.92H70.2596L64.6648 98.2502ZM80.8512 19.5174V48.5106H109.844L80.8512 19.5174Z" fill="#775995"/>
<ellipse cx="115.745" cy="132.766" rx="44.2554" ry="44.2553" fill="white"/>
<path d="M115.745 170.213C95.0638 170.213 78.2979 153.447 78.2979 132.766C78.2979 112.085 95.0638 95.3191 115.745 95.3191C136.426 95.3191 153.192 112.085 153.192 132.766C153.192 153.447 136.426 170.213 115.745 170.213ZM119.149 110.638H112.34V134.175L125.957 147.792L130.771 142.979L119.149 131.357V110.638Z" fill="#775995"/>
</svg>
